HIERARCHY
ROOT Root
{
  OFFSET 0.0 0.0 0.0
  CHANNELS 6 Xposition Yposition Zposition Zrotation Yrotation Xrotation
  JOINT Hips
  {
    OFFSET 0.0 100.0 0.0
    CHANNELS 6 Xposition Yposition Zposition Zrotation Yrotation Xrotation
    JOINT Spine1
    {
      OFFSET 5.003913 -0.037094 -0.013727
      CHANNELS 3 Zrotation Yrotation Xrotation
      JOINT Spine2
      {
        OFFSET 7.125363 -1e-06 0.0
        CHANNELS 3 Zrotation Yrotation Xrotation
        JOINT Chest
        {
          OFFSET 7.594027 1e-06 0.0
          CHANNELS 3 Zrotation Yrotation Xrotation
          JOINT Neck1
          {
            OFFSET 26.313086 -0.460272 -0.181672
            CHANNELS 3 Zrotation Yrotation Xrotation
            JOINT Neck2
            {
              OFFSET 8.045911 0.0 0.0
              CHANNELS 3 Zrotation Yrotation Xrotation
              JOINT Head
              {
                OFFSET 6.432774 0.0 0.0
                CHANNELS 3 Zrotation Yrotation Xrotation
                JOINT HeadEnd
                {
                  OFFSET 16.169773 0.06451 0.00362
                  CHANNELS 3 Zrotation Yrotation Xrotation
                }
                JOINT Jaw
                {
                  OFFSET 0.108741 3.12938 0.002639
                  CHANNELS 3 Zrotation Yrotation Xrotation
                }
                JOINT LeftEye
                {
                  OFFSET 4.45173 8.166359 3.206392
                  CHANNELS 3 Zrotation Yrotation Xrotation
                }
                JOINT RightEye
                {
                  OFFSET 4.436895 8.135758 -3.222429
                  CHANNELS 3 Zrotation Yrotation Xrotation
                }
              }
            }
          }
          JOINT LeftShoulder
          {
            OFFSET 23.218927 5.195579 1.621656
            CHANNELS 3 Zrotation Yrotation Xrotation
            JOINT LeftArm
            {
              OFFSET 15.902118 2e-06 -2e-06
              CHANNELS 3 Zrotation Yrotation Xrotation
              JOINT LeftForeArm
              {
                OFFSET 28.739307 0.0 -1e-06
                CHANNELS 3 Zrotation Yrotation Xrotation
                JOINT LeftHand
                {
                  OFFSET 27.093981 -4e-06 0.0
                  CHANNELS 3 Zrotation Yrotation Xrotation
                  JOINT LeftHandThumb1
                  {
                    OFFSET 2.276781 3.380274 0.83384
                    CHANNELS 3 Zrotation Yrotation Xrotation
                    JOINT LeftHandThumb2
                    {
                      OFFSET 4.705309 -1e-06 -1e-06
                      CHANNELS 3 Zrotation Yrotation Xrotation
                      JOINT LeftHandThumb3
                      {
                        OFFSET 2.798515 0.0 3e-06
                        CHANNELS 3 Zrotation Yrotation Xrotation
                        JOINT LeftHandThumbEnd
                        {
                          OFFSET 3.180793 4e-06 -4e-06
                          CHANNELS 3 Zrotation Yrotation Xrotation
                        }
                      }
                    }
                  }
                  JOINT LeftHandIndex1
                  {
                    OFFSET 3.247786 2.352677 0.137192
                    CHANNELS 3 Zrotation Yrotation Xrotation
                    JOINT LeftHandIndex2
                    {
                      OFFSET 6.367095 1e-06 0.0
                      CHANNELS 3 Zrotation Yrotation Xrotation
                      JOINT LeftHandIndex3
                      {
                        OFFSET 3.662364 0.0 0.0
                        CHANNELS 3 Zrotation Yrotation Xrotation
                        JOINT LeftHandIndex4
                        {
                          OFFSET 2.329242 4e-06 -4e-06
                          CHANNELS 3 Zrotation Yrotation Xrotation
                          JOINT LeftHandIndexEnd
                          {
                            OFFSET 2.767823 1e-06 0.0
                            CHANNELS 3 Zrotation Yrotation Xrotation
                          }
                        }
                      }
                    }
                  }
                  JOINT LeftHandMiddle1
                  {
                    OFFSET 3.163612 0.945023 -0.406112
                    CHANNELS 3 Zrotation Yrotation Xrotation
                    JOINT LeftHandMiddle2
                    {
                      OFFSET 6.276789 3e-06 0.0
                      CHANNELS 3 Zrotation Yrotation Xrotation
                      JOINT LeftHandMiddle3
                      {
                        OFFSET 4.35652 -1e-06 4e-06
                        CHANNELS 3 Zrotation Yrotation Xrotation
                        JOINT LeftHandMiddle4
                        {
                          OFFSET 2.996877 0.0 8e-06
                          CHANNELS 3 Zrotation Yrotation Xrotation
                          JOINT LeftHandMiddleEnd
                          {
                            OFFSET 2.323256 3e-06 -4e-06
                            CHANNELS 3 Zrotation Yrotation Xrotation
                          }
                        }
                      }
                    }
                  }
                  JOINT LeftHandRing1
                  {
                    OFFSET 2.882606 -0.309162 0.107445
                    CHANNELS 3 Zrotation Yrotation Xrotation
                    JOINT LeftHandRing2
                    {
                      OFFSET 6.033198 0.0 4e-06
                      CHANNELS 3 Zrotation Yrotation Xrotation
                      JOINT LeftHandRing3
                      {
                        OFFSET 4.350578 3e-06 0.0
                        CHANNELS 3 Zrotation Yrotation Xrotation
                        JOINT LeftHandRing4
                        {
                          OFFSET 2.651321 2e-06 -7e-06
                          CHANNELS 3 Zrotation Yrotation Xrotation
                          JOINT LeftHandRingEnd
                          {
                            OFFSET 1.937663 1e-06 -4e-06
                            CHANNELS 3 Zrotation Yrotation Xrotation
                          }
                        }
                      }
                    }
                  }
                  JOINT LeftHandPinky1
                  {
                    OFFSET 2.865315 -1.525436 0.575687
                    CHANNELS 3 Zrotation Yrotation Xrotation
                    JOINT LeftHandPinky2
                    {
                      OFFSET 5.54936 1e-06 -8e-06
                      CHANNELS 3 Zrotation Yrotation Xrotation
                      JOINT LeftHandPinky3
                      {
                        OFFSET 3.070974 0.0 -4e-06
                        CHANNELS 3 Zrotation Yrotation Xrotation
                        JOINT LeftHandPinky4
                        {
                          OFFSET 1.549672 1e-06 0.0
                          CHANNELS 3 Zrotation Yrotation Xrotation
                          JOINT LeftHandPinkyEnd
                          {
                            OFFSET 1.952123 0.0 0.0
                            CHANNELS 3 Zrotation Yrotation Xrotation
                          }
                        }
                      }
                    }
                  }
                }
              }
            }
          }
          JOINT RightShoulder
          {
            OFFSET 23.161716 5.296122 -1.380114
            CHANNELS 3 Zrotation Yrotation Xrotation
            JOINT RightArm
            {
              OFFSET -16.027195 -2e-06 1.1e-05
              CHANNELS 3 Zrotation Yrotation Xrotation
              JOINT RightForeArm
              {
                OFFSET -28.736639 4e-06 2e-06
                CHANNELS 3 Zrotation Yrotation Xrotation
                JOINT RightHand
                {
                  OFFSET -27.133619 6e-06 0.0
                  CHANNELS 3 Zrotation Yrotation Xrotation
                  JOINT RightHandThumb1
                  {
                    OFFSET -2.274328 -3.351035 -0.83067
                    CHANNELS 3 Zrotation Yrotation Xrotation
                    JOINT RightHandThumb2
                    {
                      OFFSET -4.703594 -3e-06 2e-06
                      CHANNELS 3 Zrotation Yrotation Xrotation
                      JOINT RightHandThumb3
                      {
                        OFFSET -2.794935 -4e-06 -3e-06
                        CHANNELS 3 Zrotation Yrotation Xrotation
                        JOINT RightHandThumbEnd
                        {
                          OFFSET -3.183852 4e-06 1e-06
                          CHANNELS 3 Zrotation Yrotation Xrotation
                        }
                      }
                    }
                  }
                  JOINT RightHandIndex1
                  {
                    OFFSET -3.253496 -2.33755 -0.127667
                    CHANNELS 3 Zrotation Yrotation Xrotation
                    JOINT RightHandIndex2
                    {
                      OFFSET -6.344434 0.0 0.0
                      CHANNELS 3 Zrotation Yrotation Xrotation
                      JOINT RightHandIndex3
                      {
                        OFFSET -3.654871 0.0 -8e-06
                        CHANNELS 3 Zrotation Yrotation Xrotation
                        JOINT RightHandIndex4
                        {
                          OFFSET -2.327586 -1e-06 0.0
                          CHANNELS 3 Zrotation Yrotation Xrotation
                          JOINT RightHandIndexEnd
                          {
                            OFFSET -2.770001 3e-06 8e-06
                            CHANNELS 3 Zrotation Yrotation Xrotation
                          }
                        }
                      }
                    }
                  }
                  JOINT RightHandMiddle1
                  {
                    OFFSET -3.168223 -0.944764 0.411762
                    CHANNELS 3 Zrotation Yrotation Xrotation
                    JOINT RightHandMiddle2
                    {
                      OFFSET -6.266691 -1e-06 -4e-06
                      CHANNELS 3 Zrotation Yrotation Xrotation
                      JOINT RightHandMiddle3
                      {
                        OFFSET -4.348901 0.0 0.0
                        CHANNELS 3 Zrotation Yrotation Xrotation
                        JOINT RightHandMiddle4
                        {
                          OFFSET -3.00024 2e-06 -4e-06
                          CHANNELS 3 Zrotation Yrotation Xrotation
                          JOINT RightHandMiddleEnd
                          {
                            OFFSET -2.321477 -4e-06 -4e-06
                            CHANNELS 3 Zrotation Yrotation Xrotation
                          }
                        }
                      }
                    }
                  }
                  JOINT RightHandRing1
                  {
                    OFFSET -2.885654 0.293261 -0.119232
                    CHANNELS 3 Zrotation Yrotation Xrotation
                    JOINT RightHandRing2
                    {
                      OFFSET -6.032835 -1e-06 -4e-06
                      CHANNELS 3 Zrotation Yrotation Xrotation
                      JOINT RightHandRing3
                      {
                        OFFSET -4.33881 0.0 -4e-06
                        CHANNELS 3 Zrotation Yrotation Xrotation
                        JOINT RightHandRing4
                        {
                          OFFSET -2.654903 -4e-06 -4e-06
                          CHANNELS 3 Zrotation Yrotation Xrotation
                          JOINT RightHandRingEnd
                          {
                            OFFSET -1.935122 0.0 4e-06
                            CHANNELS 3 Zrotation Yrotation Xrotation
                          }
                        }
                      }
                    }
                  }
                  JOINT RightHandPinky1
                  {
                    OFFSET -2.866241 1.503904 -0.60527
                    CHANNELS 3 Zrotation Yrotation Xrotation
                    JOINT RightHandPinky2
                    {
                      OFFSET -5.553177 -2e-06 0.0
                      CHANNELS 3 Zrotation Yrotation Xrotation
                      JOINT RightHandPinky3
                      {
                        OFFSET -3.062664 -1e-06 -4e-06
                        CHANNELS 3 Zrotation Yrotation Xrotation
                        JOINT RightHandPinky4
                        {
                          OFFSET -1.546529 2e-06 4e-06
                          CHANNELS 3 Zrotation Yrotation Xrotation
                          JOINT RightHandPinkyEnd
                          {
                            OFFSET -1.952341 0.0 -4e-06
                            CHANNELS 3 Zrotation Yrotation Xrotation
                          }
                        }
                      }
                    }
                  }
                }
              }
            }
          }
        }
      }
    }
    JOINT LeftLeg
    {
      OFFSET -8.443107 2.567604 10.043214
      CHANNELS 3 Zrotation Yrotation Xrotation
      JOINT LeftShin
      {
        OFFSET 43.229198 1e-06 -1e-06
        CHANNELS 3 Zrotation Yrotation Xrotation
        JOINT LeftFoot
        {
          OFFSET 42.298611 1e-06 1e-06
          CHANNELS 3 Zrotation Yrotation Xrotation
          JOINT LeftToeBase
          {
            OFFSET 14.165858 1e-06 0.0
            CHANNELS 3 Zrotation Yrotation Xrotation
            JOINT LeftToeEnd
            {
              OFFSET 6.7141 -0.234461 0.0
              CHANNELS 3 Zrotation Yrotation Xrotation
            }
          }
        }
      }
    }
    JOINT RightLeg
    {
      OFFSET -8.303923 2.592729 -10.047278
      CHANNELS 3 Zrotation Yrotation Xrotation
      JOINT RightShin
      {
        OFFSET -43.369682 0.0 1e-06
        CHANNELS 3 Zrotation Yrotation Xrotation
        JOINT RightFoot
        {
          OFFSET -42.260784 4e-06 2e-06
          CHANNELS 3 Zrotation Yrotation Xrotation
          JOINT RightToeBase
          {
            OFFSET -14.222245 -2e-06 -1e-06
            CHANNELS 3 Zrotation Yrotation Xrotation
            JOINT RightToeEnd
            {
              OFFSET -6.660062 0.232574 -2e-06
              CHANNELS 3 Zrotation Yrotation Xrotation
            }
          }
        }
      }
    }
  }
}
MOTION
Frames: 4
Frame Time: 0.03333333333333333
0.0 0.0 0.0 0.0 -0.0 0.0 1.433733 100.371063 -0.040624 90.462898 3.988636 89.819016 -1.5116 0.492594 -0.008992 -11.261956 -0.114338 0.784968 16.54043 -1.038349 -1.378972 19.860048 -0.370447 2.599399 -2.661688 -0.623323 -1.958227 -35.868519 -0.61449 -1.919531 5e-06 -0.0 -0.0 0.054863 -0.009877 -0.08036 0.072851 -0.0593 -0.091479 0.085809 0.036875 -0.061464 -136.74617 -65.714363 153.096786 33.474537 -57.816547 -10.000608 22.984951 0.266617 0.17677 0.764066 -5.0184 7.220311 17.636625 -26.322725 52.411182 -19.466656 -14.395596 29.410381 -0.0 -8.77482 -3e-06 16.240784 -17.92458 5.870324 -0.609775 -1.795653 -3.889326 -4.807087 -11.046809 -2.937851 4e-06 -20.976015 -0.0 -5.019969 -25.033556 -4.03188 6e-06 2e-06 1e-06 -10.634532 -5.686968 -3.565587 10.573272 -17.922947 -3.113899 2e-06 -13.821206 0.0 -0.501776 -31.181498 -4.027013 -11.330062 -59.328411 6.840191 -13.982712 -7.150197 -2.87504 13.772726 -8.401491 -3.218241 0.347735 -34.21154 0.771653 -0.963027 -17.733364 2.621017 0.0 -0.0 -1e-06 -17.346413 -20.095213 -4.201783 21.757555 -1.638375 3.86643 1e-06 -6.338824 0.0 -1.697588 -22.59174 -6.194005 -0.0 -3e-06 -3e-06 34.914932 -71.262589 162.988922 41.045925 -48.327206 0.537634 29.888948 0.073032 0.262895 4.000232 8.151635 -4.328731 22.182108 -20.375895 49.933319 -16.701811 -16.74353 28.47653 -2e-06 -12.6906 1e-06 15.529487 -17.551304 3.135454 -0.105919 -1.513854 -4.275881 -5.039042 -5.612871 -2.953555 3e-06 -11.020523 -1e-06 -6.111298 -15.89533 -3.840473 1e-06 -0.0 1e-06 -10.283369 -5.680286 -4.341839 11.028294 -11.302403 -2.372633 -1.38427 -14.238581 -6.320121 -0.625438 -26.924187 -3.8276 -4.066672 -49.336861 -3.947331 -13.708523 -7.363475 -3.720939 18.141144 -14.052735 -3.242675 4e-06 -18.787264 -1e-06 -0.42971 -8.456043 2.555501 0.0 -0.0 -1e-06 -15.923536 -20.094482 -5.473587 30.41921 -7.190824 1.735926 3e-06 -8.162925 -0.0 -1.861904 -22.861467 -6.167939 -1e-06 -3e-06 -2e-06 -171.288239 -3.461248 7.306259 5.645318 -0.083207 -0.043385 -77.034012 2.815921 -3.901553 -5.02579 1.616942 2.177478 -0.999999 1e-06 -0.0 6.054001 -4.240622 -1.271839 5.773747 -0.051919 0.12366 -76.124977 -4.574015 -6.484542 -3.813432 0.690845 1.724737 -1.000002 -0.0 0.0 
0.0 0.0 0.0 0.0 -0.0 0.0 1.490999 100.415421 -0.038515 90.460701 4.01961 89.680107 -1.486513 0.438469 -0.064848 -11.231892 -0.085851 0.882444 16.504171 -1.241286 -1.457517 19.930338 -0.19357 2.604785 -2.66024 -0.586751 -1.967229 -36.001244 -0.750051 -1.962355 6e-06 0.0 -0.0 0.046237 -0.013153 -0.082217 0.081119 -0.064259 -0.085058 0.087385 0.035989 -0.070592 -136.827133 -65.805206 153.143372 32.985477 -57.827271 -10.546157 22.926428 0.103728 0.088624 0.74828 -5.028214 7.437815 17.636625 -26.322727 52.411182 -19.46666 -14.395597 29.410385 0.0 -8.774819 -1e-06 16.190098 -17.909079 5.820943 -0.609776 -1.795653 -3.889328 -4.807088 -11.046808 -2.937849 4e-06 -20.976011 -1e-06 -5.01997 -25.033552 -4.031881 6e-06 2e-06 1e-06 -10.634533 -5.686969 -3.565586 10.573272 -17.922945 -3.113899 2e-06 -13.821205 -0.0 -0.501778 -31.181498 -4.027016 -11.446568 -59.280209 6.818272 -13.982712 -7.150197 -2.875042 13.772726 -8.401489 -3.218241 0.347732 -34.211544 0.771658 -0.963029 -17.733366 2.621019 -0.0 -0.0 -2e-06 -17.346415 -20.095213 -4.201782 21.757555 -1.638377 3.866426 2e-06 -6.338822 1e-06 -1.697589 -22.591738 -6.194005 0.0 -5e-06 -2e-06 35.509968 -71.442589 162.31282 40.263523 -46.005478 -1.171278 36.215393 0.573024 0.36193 4.399644 9.895451 -3.094325 22.182117 -20.375898 49.933315 -16.701811 -16.74353 28.476528 -3e-06 -12.6906 -1e-06 15.412553 -17.794058 3.14482 -0.10592 -1.513855 -4.27588 -5.039042 -5.612873 -2.953557 5e-06 -11.020525 -0.0 -6.1113 -15.895334 -3.84047 2e-06 -0.0 0.0 -10.283369 -5.680286 -4.341838 11.028294 -11.302406 -2.372632 -1.384269 -14.238579 -6.32012 -0.625443 -26.924189 -3.827599 -4.092671 -49.460331 -4.024885 -13.708528 -7.363476 -3.720936 18.141153 -14.052739 -3.242675 6e-06 -18.78727 1e-06 -0.429711 -8.456041 2.555503 1e-06 -1e-06 1e-06 -15.923538 -20.094482 -5.473581 30.419207 -7.190827 1.735927 4e-06 -8.162922 -2e-06 -1.861903 -22.861469 -6.167943 -1e-06 -1e-06 -2e-06 -171.265366 -3.396387 7.097631 5.705876 -0.074332 -0.022813 -76.858627 2.775934 -3.935432 -5.020072 1.642708 2.187972 -0.999998 -0.0 -0.0 6.0178 -4.276401 -1.1029 5.905447 -0.049301 0.143225 -75.977722 -4.504117 -6.475876 -3.824311 0.699975 1.733079 -1.000003 -0.0 0.0 
0.0 0.0 0.0 0.0 -0.0 0.0 1.540584 100.404427 -0.05142 90.458031 4.058216 89.582581 -1.501226 0.364673 -0.096797 -11.249638 -0.079214 0.96233 16.575489 -1.391628 -1.497405 20.093143 -0.053616 2.609315 -2.698608 -0.584268 -1.99191 -35.986263 -0.944493 -2.056992 6e-06 -0.0 0.0 0.039815 -0.015622 -0.095785 0.063021 -0.070132 -0.091267 0.064144 0.037033 -0.091775 -136.805862 -65.917427 153.154816 32.486557 -57.849865 -11.051978 23.078808 -0.081029 0.010971 0.578648 -4.967775 7.398647 17.636627 -26.322725 52.41119 -19.46666 -14.395596 29.410385 -0.0 -8.774821 -1e-06 16.075159 -17.896029 5.823552 -0.609775 -1.795654 -3.889326 -4.807089 -11.046809 -2.93785 4e-06 -20.976015 -1e-06 -5.019969 -25.033552 -4.031883 6e-06 1e-06 1e-06 -10.634537 -5.686971 -3.565587 10.573276 -17.922951 -3.113901 3e-06 -13.821206 -2e-06 -0.501775 -31.181505 -4.027018 -11.472833 -59.270779 6.742672 -13.982714 -7.150198 -2.875042 13.772731 -8.401491 -3.218242 0.347738 -34.211544 0.771651 -0.963026 -17.73337 2.621017 -0.0 1e-06 -0.0 -17.346418 -20.095219 -4.201783 21.757557 -1.638376 3.866428 1e-06 -6.338822 -0.0 -1.697589 -22.59174 -6.194007 0.0 -4e-06 -3e-06 35.98745 -71.75515 161.565338 39.423717 -43.258312 -3.434592 43.580044 0.915962 0.538582 5.144377 12.607287 -0.484259 22.182116 -20.375891 49.933319 -16.701817 -16.743532 28.47653 0.0 -12.690604 -2e-06 15.346313 -18.147358 3.125372 -0.105918 -1.513856 -4.275881 -5.03904 -5.612869 -2.953556 5e-06 -11.020525 -2e-06 -6.111298 -15.89533 -3.840471 -1e-06 -0.0 0.0 -10.28337 -5.680287 -4.341835 11.028296 -11.302402 -2.372633 -1.384273 -14.23858 -6.320121 -0.62544 -26.924187 -3.827598 -4.141586 -49.514736 -4.151028 -13.708527 -7.363477 -3.720935 18.141153 -14.052737 -3.242676 6e-06 -18.787271 -3e-06 -0.429713 -8.456045 2.555504 1e-06 1e-06 -1e-06 -15.923538 -20.094482 -5.473582 30.41921 -7.190825 1.735924 2e-06 -8.162925 -1e-06 -1.861902 -22.861467 -6.167942 -0.0 -3e-06 -3e-06 -171.237701 -3.337164 6.954798 5.770695 -0.080856 -0.019065 -76.928947 2.736873 -4.004338 -4.963441 1.628293 2.188715 -0.999998 -0.0 -0.0 5.985061 -4.325598 -0.97926 6.033482 -0.047155 0.164844 -76.051277 -4.434644 -6.563018 -3.809878 0.728363 1.742856 -1.000002 -0.0 -0.0 
0.0 0.0 0.0 0.0 -0.0 0.0 1.597318 100.362991 -0.076987 90.438179 4.083548 89.475952 -1.532733 0.29684 -0.101352 -11.299766 -0.069997 1.033848 16.670755 -1.485366 -1.531994 20.364988 0.000239 2.619181 -2.720194 -0.608775 -1.976933 -35.968632 -1.14769 -2.150703 7e-06 0.0 -0.0 0.036152 -0.018054 -0.105106 0.033364 -0.07499 -0.097375 0.033495 0.036428 -0.105999 -136.550781 -66.039017 152.90773 31.901144 -57.951702 -11.150798 23.374004 -0.194061 -0.039739 0.430877 -4.891318 7.290259 17.636627 -26.322725 52.411179 -19.466663 -14.395596 29.410385 -1e-06 -8.774821 -1e-06 15.943956 -17.855661 5.848495 -0.609775 -1.795653 -3.889328 -4.807089 -11.046811 -2.93785 5e-06 -20.976019 -1e-06 -5.01997 -25.03356 -4.031881 6e-06 -2e-06 1e-06 -10.634532 -5.68697 -3.565588 10.573271 -17.922951 -3.113901 2e-06 -13.821206 1e-06 -0.501775 -31.181507 -4.027016 -11.438175 -59.298843 6.662169 -13.982712 -7.150198 -2.875044 13.77273 -8.401494 -3.21824 0.347735 -34.211555 0.771656 -0.963027 -17.733372 2.621017 0.0 -1e-06 -1e-06 -17.346415 -20.095217 -4.201784 21.757555 -1.638376 3.866429 1e-06 -6.338823 0.0 -1.697588 -22.591742 -6.194007 -0.0 -3e-06 -3e-06 36.497097 -72.242989 160.652786 38.868256 -40.093498 -6.568511 51.522797 1.185205 0.868755 6.404706 15.523766 3.178659 22.182114 -20.375896 49.933304 -16.701813 -16.743528 28.476522 -2e-06 -12.690598 -0.0 15.358322 -18.446812 3.077955 -0.105918 -1.513856 -4.27588 -5.039039 -5.612869 -2.953553 5e-06 -11.020521 -3e-06 -6.111299 -15.89533 -3.840466 -2e-06 1e-06 -2e-06 -10.283367 -5.680286 -4.341836 11.028295 -11.302406 -2.372633 -1.384266 -14.238581 -6.320117 -0.625437 -26.924187 -3.827598 -4.251044 -49.658203 -4.185989 -13.708521 -7.363475 -3.720942 18.14115 -14.052739 -3.242673 7e-06 -18.78727 -0.0 -0.42971 -8.456043 2.555502 1e-06 1e-06 -1e-06 -15.923532 -20.094479 -5.473583 30.41921 -7.190826 1.735924 3e-06 -8.162926 0.0 -1.8619 -22.861473 -6.167941 -0.0 -2e-06 -1e-06 -171.226334 -3.289402 6.833692 5.827124 -0.093889 -0.009909 -77.145599 2.634165 -4.105886 -4.894621 1.589973 2.182104 -0.999999 -0.0 0.0 5.966364 -4.35408 -0.829877 6.069386 -0.059064 0.187136 -76.203934 -4.399867 -6.687819 -3.869987 0.741784 1.741904 -1.000002 -0.0 -0.0 
